<svg preserveAspectRatio="none" width="100%" height="100%" overflow="visible" style="display: block;" viewBox="0 0 24 24" fill="none" xmlns="http://www.w3.org/2000/svg">
<g id="emoji-normal">
<path id="Vector" d="M15 22.75H9C3.57 22.75 1.25 20.43 1.25 15V9C1.25 3.57 3.57 1.25 9 1.25H15C20.43 1.25 22.75 3.57 22.75 9V15C22.75 20.43 20.43 22.75 15 22.75ZM9 2.75C4.39 2.75 2.75 4.39 2.75 9V15C2.75 19.61 4.39 21.25 9 21.25H15C19.61 21.25 21.25 19.61 21.25 15V9C21.25 4.39 19.61 2.75 15 2.75H9Z" fill="var(--fill-0, #343434)"/>
<path id="Vector_2" d="M8.8175 9.74945C7.9675 9.74945 7.1175 9.42945 6.4675 8.77945C6.1775 8.48945 6.1775 8.00945 6.4675 7.71945C6.7575 7.42945 7.2375 7.42945 7.5275 7.71945C8.2375 8.42945 9.3975 8.42945 10.1075 7.71945C10.3975 7.42945 10.8775 7.42945 11.1675 7.71945C11.4575 8.00945 11.4575 8.48945 11.1675 8.77945C10.5175 9.41945 9.6675 9.74945 8.8175 9.74945Z" fill="var(--fill-0, #343434)"/>
<path id="Vector_3" d="M15.1769 9.74945C14.3269 9.74945 13.4769 9.42945 12.8269 8.77945C12.5369 8.48945 12.5369 8.00945 12.8269 7.71945C13.1169 7.42945 13.5969 7.42945 13.8869 7.71945C14.5969 8.42945 15.7569 8.42945 16.4669 7.71945C16.7569 7.42945 17.2369 7.42945 17.5269 7.71945C17.8169 8.00945 17.8169 8.48945 17.5269 8.77945C16.8769 9.41945 16.0269 9.74945 15.1769 9.74945Z" fill="var(--fill-0, #343434)"/>
<path id="Vector_4" d="M12 19.15C9.1 19.15 6.75 16.79 6.75 13.9C6.75 12.99 7.49 12.25 8.4 12.25H15.6C16.51 12.25 17.25 12.99 17.25 13.9C17.25 16.79 14.9 19.15 12 19.15ZM8.4 13.75C8.32 13.75 8.25 13.82 8.25 13.9C8.25 15.97 9.93 17.65 12 17.65C14.07 17.65 15.75 15.97 15.75 13.9C15.75 13.82 15.68 13.75 15.6 13.75H8.4V13.75Z" fill="var(--fill-0, #343434)"/>
<g id="Vector_5" opacity="0">
</g>
</g>
</svg>
